<svg id="visual" viewBox="0 0 900 600" width="900" height="600" xmlns="http://www.w3.org/2000/svg" xmlns:xlink="http://www.w3.org/1999/xlink" version="1.1"><rect x="0" y="0" width="900" height="600" fill="#001220"></rect><defs><linearGradient id="grad1_0" x1="33.3%" y1="0%" x2="100%" y2="100%"><stop offset="20%" stop-color="#fbae3c" stop-opacity="1"></stop><stop offset="80%" stop-color="#fbae3c" stop-opacity="1"></stop></linearGradient></defs><defs><linearGradient id="grad1_1" x1="33.3%" y1="0%" x2="100%" y2="100%"><stop offset="20%" stop-color="#fbae3c" stop-opacity="1"></stop><stop offset="80%" stop-color="#e1685e" stop-opacity="1"></stop></linearGradient></defs><defs><linearGradient id="grad1_2" x1="33.3%" y1="0%" x2="100%" y2="100%"><stop offset="20%" stop-color="#96446e" stop-opacity="1"></stop><stop offset="80%" stop-color="#e1685e" stop-opacity="1"></stop></linearGradient></defs><defs><linearGradient id="grad1_3" x1="33.3%" y1="0%" x2="100%" y2="100%"><stop offset="20%" stop-color="#96446e" stop-opacity="1"></stop><stop offset="80%" stop-color="#3d3056" stop-opacity="1"></stop></linearGradient></defs><defs><linearGradient id="grad1_4" x1="33.3%" y1="0%" x2="100%" y2="100%"><stop offset="20%" stop-color="#001220" stop-opacity="1"></stop><stop offset="80%" stop-color="#3d3056" stop-opacity="1"></stop></linearGradient></defs><defs><linearGradient id="grad2_0" x1="0%" y1="0%" x2="66.7%" y2="100%"><stop offset="20%" stop-color="#fbae3c" stop-opacity="1"></stop><stop offset="80%" stop-color="#fbae3c" stop-opacity="1"></stop></linearGradient></defs><defs><linearGradient id="grad2_1" x1="0%" y1="0%" x2="66.7%" y2="100%"><stop offset="20%" stop-color="#e1685e" stop-opacity="1"></stop><stop offset="80%" stop-color="#fbae3c" stop-opacity="1"></stop></linearGradient></defs><defs><linearGradient id="grad2_2" x1="0%" y1="0%" x2="66.7%" y2="100%"><stop offset="20%" stop-color="#e1685e" stop-opacity="1"></stop><stop offset="80%" stop-color="#96446e" stop-opacity="1"></stop></linearGradient></defs><defs><linearGradient id="grad2_3" x1="0%" y1="0%" x2="66.7%" y2="100%"><stop offset="20%" stop-color="#3d3056" stop-opacity="1"></stop><stop offset="80%" stop-color="#96446e" stop-opacity="1"></stop></linearGradient></defs><defs><linearGradient id="grad2_4" x1="0%" y1="0%" x2="66.7%" y2="100%"><stop offset="20%" stop-color="#3d3056" stop-opacity="1"></stop><stop offset="80%" stop-color="#001220" stop-opacity="1"></stop></linearGradient></defs><g transform="translate(900, 0)"><path d="M0 351.5C-33.6 355 -67.2 358.4 -91 339.6C-114.8 320.8 -128.8 279.7 -149 258.1C-169.2 236.4 -195.7 234.2 -223.4 223.4C-251.2 212.7 -280.3 193.5 -290.1 167.5C-299.9 141.5 -290.5 108.8 -297.5 79.7C-304.5 50.7 -328 25.3 -351.5 0L0 0Z" fill="#18223c"></path><path d="M0 281.2C-26.9 284 -53.8 286.7 -72.8 271.7C-91.8 256.6 -103 223.8 -119.2 206.5C-135.4 189.1 -156.5 187.3 -178.8 178.8C-201 170.2 -224.2 154.8 -232.1 134C-239.9 113.2 -232.4 87 -238 63.8C-243.6 40.5 -262.4 20.3 -281.2 0L0 0Z" fill="#683a67"></path><path d="M0 210.9C-20.2 213 -40.3 215 -54.6 203.7C-68.9 192.5 -77.3 167.8 -89.4 154.8C-101.5 141.9 -117.4 140.5 -134.1 134.1C-150.7 127.6 -168.2 116.1 -174.1 100.5C-180 84.9 -174.3 65.3 -178.5 47.8C-182.7 30.4 -196.8 15.2 -210.9 0L0 0Z" fill="#c0526a"></path><path d="M0 140.6C-13.4 142 -26.9 143.3 -36.4 135.8C-45.9 128.3 -51.5 111.9 -59.6 103.2C-67.7 94.6 -78.3 93.7 -89.4 89.4C-100.5 85.1 -112.1 77.4 -116 67C-120 56.6 -116.2 43.5 -119 31.9C-121.8 20.3 -131.2 10.1 -140.6 0L0 0Z" fill="#f6884d"></path><path d="M0 70.3C-6.7 71 -13.4 71.7 -18.2 67.9C-23 64.2 -25.8 55.9 -29.8 51.6C-33.8 47.3 -39.1 46.8 -44.7 44.7C-50.2 42.5 -56.1 38.7 -58 33.5C-60 28.3 -58.1 21.8 -59.5 15.9C-60.9 10.1 -65.6 5.1 -70.3 0L0 0Z" fill="#fbae3c"></path></g><g transform="translate(0, 600)"><path d="M0 -351.5C33.8 -354.2 67.6 -356.9 90.6 -338.1C113.6 -319.3 125.8 -278.9 151 -261.5C176.2 -244.1 214.5 -249.7 234.8 -234.8C255 -219.8 257.2 -184.5 274.5 -158.5C291.8 -132.5 324.2 -115.8 339.6 -91C354.9 -66.1 353.2 -33.1 351.5 0L0 0Z" fill="#18223c"></path><path d="M0 -281.2C27 -283.4 54.1 -285.5 72.5 -270.5C90.9 -255.4 100.6 -223.1 120.8 -209.2C141 -195.3 171.6 -199.7 187.8 -187.8C204 -175.9 205.8 -147.6 219.6 -126.8C233.5 -106 259.4 -92.7 271.7 -72.8C283.9 -52.9 282.6 -26.5 281.2 0L0 0Z" fill="#683a67"></path><path d="M0 -210.9C20.3 -212.5 40.6 -214.1 54.4 -202.8C68.1 -191.6 75.5 -167.4 90.6 -156.9C105.7 -146.5 128.7 -149.8 140.9 -140.9C153 -131.9 154.3 -110.7 164.7 -95.1C175.1 -79.5 194.5 -69.5 203.7 -54.6C212.9 -39.7 211.9 -19.8 210.9 0L0 0Z" fill="#c0526a"></path><path d="M0 -140.6C13.5 -141.7 27 -142.8 36.2 -135.2C45.4 -127.7 50.3 -111.6 60.4 -104.6C70.5 -97.7 85.8 -99.9 93.9 -93.9C102 -87.9 102.9 -73.8 109.8 -63.4C116.7 -53 129.7 -46.3 135.8 -36.4C142 -26.5 141.3 -13.2 140.6 0L0 0Z" fill="#f6884d"></path><path d="M0 -70.3C6.8 -70.8 13.5 -71.4 18.1 -67.6C22.7 -63.9 25.2 -55.8 30.2 -52.3C35.2 -48.8 42.9 -49.9 47 -47C51 -44 51.4 -36.9 54.9 -31.7C58.4 -26.5 64.8 -23.2 67.9 -18.2C71 -13.2 70.6 -6.6 70.3 0L0 0Z" fill="#fbae3c"></path></g></svg>